<svg xmlns="http://www.w3.org/2000/svg" width="30" height="30" viewBox="0 0 30 30" fill="none">
  <path d="M28.5789 1.1311C28.4873 1.10746 28.3904 1.11609 28.3044 1.15553C28.2185 1.19497 28.1487 1.26283 28.1069 1.34767C28.0694 1.42454 27.1415 3.24892 23.077 5.39532C23.0208 5.41984 22.9709 5.45664 22.9309 5.503C22.8908 5.54936 22.8617 5.60411 22.8456 5.66321C22.5917 6.61437 22.2473 7.53905 21.8172 8.42462C21.5799 7.91056 21.4209 7.36388 21.3454 6.80275C21.3365 6.74054 21.3133 6.68122 21.2778 6.62936C21.2423 6.57751 21.1954 6.53451 21.1406 6.50368C21.0858 6.47286 21.0247 6.45503 20.962 6.45157C20.8992 6.44812 20.8365 6.45913 20.7787 6.48376C19.7043 6.9415 18.535 7.37743 17.3031 7.77915C15.6698 8.30117 14.0937 8.98806 12.5995 9.82923C12.513 9.87882 12.4476 9.95823 12.4155 10.0526C12.2302 10.5963 12.03 11.1099 11.815 11.5934C11.8239 11.4321 11.8358 11.2607 11.8506 11.0792C11.8571 11.0017 11.8413 10.9239 11.8053 10.855C11.7692 10.7862 11.7143 10.7289 11.647 10.69C11.5797 10.6512 11.5027 10.6322 11.425 10.6354C11.3473 10.6386 11.2721 10.6638 11.2082 10.7081C7.04126 13.5938 4.77064 17.6665 4.0654 23.5102C2.99775 24.627 2.0599 25.861 1.26978 27.1887C1.12219 27.4395 1.07595 27.7371 1.14051 28.0209C1.20507 28.3046 1.37556 28.5529 1.61712 28.7152C1.79561 28.8302 2.00339 28.8914 2.21571 28.8917H20.9657C21.0745 28.8917 21.1788 28.8484 21.2557 28.7715C21.3327 28.6946 21.3759 28.5903 21.3759 28.4815C21.3759 28.3727 21.3327 28.2684 21.2557 28.1915C21.1788 28.1146 21.0745 28.0713 20.9657 28.0713H3.34329C4.05546 26.9243 4.88876 25.8571 5.82884 24.8881C9.87204 24.6898 19.2475 23.8732 22.9321 20.5418C23.1995 20.2998 23.4539 20.0437 23.6941 19.7747C23.7422 19.7211 23.7754 19.6558 23.7903 19.5853C23.8051 19.5148 23.8012 19.4417 23.7788 19.3732C23.7564 19.3047 23.7164 19.2434 23.6628 19.1953C23.6091 19.1472 23.5438 19.114 23.4733 19.0992C23.3854 19.0809 23.2985 19.0617 23.212 19.0423C23.5035 19.001 23.8312 18.9619 24.1924 18.9295C24.2523 18.924 24.3103 18.9054 24.3623 18.8751C24.4143 18.8447 24.459 18.8033 24.4933 18.7538C27.4884 14.4075 28.3504 11.0311 28.8848 1.55064C28.89 1.45616 28.8624 1.36278 28.8067 1.28632C28.7509 1.20986 28.6705 1.15502 28.5789 1.1311ZM1.97829 27.6019C4.53298 23.2191 9.26032 19.8884 14.2649 16.3627C15.3121 15.6251 16.4999 14.7891 17.6383 13.9531C17.6887 13.9157 17.7497 13.8955 17.8124 13.8954C17.8281 13.8954 17.8438 13.8967 17.8593 13.8992C17.8972 13.905 17.9336 13.9184 17.9663 13.9385C17.999 13.9586 18.0273 13.9851 18.0496 14.0163C18.0952 14.079 18.1142 14.1571 18.1025 14.2336C18.0908 14.3102 18.0494 14.3791 17.9873 14.4253C16.8438 15.2627 15.6529 16.1016 14.6015 16.8417C9.64142 20.3363 4.95626 23.637 2.46696 27.926C2.44718 27.9602 2.42066 27.9899 2.38901 28.0135C2.35737 28.037 2.32126 28.0539 2.28288 28.063C2.24451 28.0722 2.20467 28.0734 2.16581 28.0666C2.12694 28.0599 2.08985 28.0453 2.05681 28.0238C1.99337 27.976 1.95013 27.9062 1.9356 27.8281C1.92107 27.75 1.9363 27.6693 1.97829 27.6019ZM23.9256 18.1306C23.0574 18.2028 22.1972 18.3519 21.3552 18.5759C21.2726 18.6009 21.2 18.6513 21.1478 18.72C21.0955 18.7887 21.0662 18.8721 21.064 18.9584C21.0619 19.0447 21.087 19.1294 21.1358 19.2006C21.1846 19.2718 21.2545 19.3258 21.3358 19.3549C21.7305 19.4956 22.1512 19.6235 22.5927 19.7365C22.5224 19.8038 22.4533 19.8689 22.3818 19.9327C19.0977 22.902 10.5428 23.7729 6.69321 24.0176C9.06321 21.7481 12.0156 19.6676 15.0749 17.5125C16.1296 16.7702 17.3226 15.9291 18.4713 15.0865C18.7077 14.9117 18.8656 14.6507 18.9108 14.3602C18.9559 14.0696 18.8846 13.773 18.7124 13.5347C18.6263 13.4159 18.5176 13.3154 18.3924 13.2388C18.2673 13.1623 18.1283 13.1113 17.9833 13.0887C17.8384 13.0661 17.6904 13.0725 17.5479 13.1073C17.4054 13.1422 17.2713 13.2049 17.1531 13.2919C16.0202 14.123 14.8366 14.9559 13.7924 15.6924C10.6087 17.9353 7.53603 20.1005 5.03431 22.5213C5.7972 17.8292 7.70806 14.4087 10.9799 11.8901C10.9564 12.3683 10.9626 12.8475 10.9984 13.3249C11.0071 13.4108 11.0425 13.4917 11.0998 13.5562C11.1571 13.6208 11.2332 13.6656 11.3174 13.6843C11.4017 13.7031 11.4896 13.6948 11.5689 13.6606C11.6481 13.6265 11.7146 13.5682 11.7588 13.4942C12.3197 12.5332 12.7829 11.5184 13.1416 10.4651C14.5482 9.68715 16.0276 9.0488 17.5586 8.55915C18.6344 8.20759 19.6642 7.83118 20.6273 7.4365C20.9249 8.80337 21.5006 9.49314 21.528 9.52501C21.5707 9.57525 21.625 9.61443 21.6861 9.63923C21.7472 9.66404 21.8134 9.67374 21.8791 9.6675C21.9448 9.66127 22.008 9.63929 22.0633 9.60343C22.1187 9.56756 22.1646 9.51888 22.1971 9.4615C22.7958 8.38471 23.2633 7.24007 23.5895 6.05204C25.8972 4.81782 27.2355 3.67032 27.9848 2.8622C27.4598 11.0236 26.586 14.2207 23.9256 18.1306Z" fill="#87A900"/>
  <path d="M26.3127 9.38444C26.2597 9.37478 26.2052 9.37568 26.1526 9.38709C26.0999 9.39851 26.0499 9.42021 26.0057 9.45095C25.9614 9.4817 25.9236 9.52088 25.8945 9.56626C25.8654 9.61163 25.8455 9.66231 25.836 9.71538C25.7242 10.3372 25.6016 10.9044 25.4643 11.4498C25.4376 11.5552 25.454 11.6669 25.5096 11.7603C25.5653 11.8538 25.6558 11.9213 25.7612 11.948C25.7942 11.9564 25.8282 11.9606 25.8622 11.9605C25.9534 11.9604 26.042 11.9299 26.1139 11.8739C26.1859 11.8179 26.2371 11.7395 26.2595 11.6511C26.4022 11.0886 26.5281 10.5026 26.6436 9.86116C26.663 9.75406 26.639 9.64367 26.5769 9.55427C26.5148 9.46487 26.4198 9.40378 26.3127 9.38444Z" fill="#87A900"/>
</svg>